<svg width="180" height="44" viewBox="0 0 180 44" fill="none" xmlns="http://www.w3.org/2000/svg">
<g clip-path="url(#clip0_302_3341)">
<rect width="180" height="44" fill="url(#paint0_linear_302_3341)"/>
<path d="M17.3591 26.136V35.2251C17.3591 35.5736 17.209 35.9078 16.9417 36.154C16.6746 36.4004 16.3121 36.5388 15.9341 36.5388C15.5563 36.5388 15.1938 36.4004 14.9265 36.154C14.6593 35.9078 14.5091 35.5736 14.5091 35.2251V26.1486C14.906 26.4157 15.3816 26.5648 15.8728 26.576C16.4081 26.5901 16.9327 26.4348 17.3591 26.136ZM29.4955 23.5086C29.1339 23.5086 28.787 23.6411 28.5313 23.8768C28.2756 24.1125 28.1319 24.4323 28.1319 24.7657V26.3497C28.1319 26.6982 28.282 27.0323 28.5493 27.2786C28.8164 27.525 29.1789 27.6634 29.5569 27.6634C29.9349 27.6634 30.2973 27.525 30.5645 27.2786C30.8317 27.0323 30.9819 26.6982 30.9819 26.3497V24.8286C30.9925 24.6483 30.9609 24.468 30.8891 24.3001C30.8174 24.1321 30.7074 23.9802 30.5662 23.855C30.4252 23.7298 30.2565 23.634 30.0719 23.5742C29.8871 23.5145 29.6905 23.4921 29.4955 23.5086ZM11.4137 29.5806C10.923 29.567 10.448 29.4181 10.05 29.1531V38.2674C10.05 38.6175 10.2009 38.9533 10.4694 39.2009C10.7379 39.4484 11.1021 39.5874 11.4819 39.5874C11.8616 39.5874 12.2258 39.4484 12.4943 39.2009C12.7628 38.9533 12.9137 38.6175 12.9137 38.2674V29.216C12.4684 29.4814 11.943 29.6091 11.4137 29.5806ZM25.05 20.7806C24.8653 20.772 24.6806 20.7983 24.5072 20.8576C24.3339 20.917 24.1754 21.0082 24.0414 21.1258C23.9075 21.2434 23.801 21.3849 23.7281 21.5416C23.6555 21.6984 23.618 21.8672 23.6182 22.0377V29.04C23.6182 29.3901 23.769 29.7259 24.0375 29.9734C24.3062 30.221 24.6703 30.36 25.05 30.36C25.4298 30.36 25.794 30.221 26.0625 29.9734C26.331 29.7259 26.4819 29.3901 26.4819 29.04V22.1257C26.4928 21.9443 26.4609 21.7629 26.3883 21.5939C26.3158 21.425 26.2045 21.2725 26.0619 21.147C25.9192 21.0216 25.7489 20.926 25.5625 20.8672C25.3761 20.8082 25.178 20.7872 24.9819 20.8057L25.05 20.7806ZM20.5228 23.4708C20.0091 23.4676 19.5092 23.3184 19.091 23.0434V32.1828C19.091 32.533 19.2418 32.8687 19.5103 33.1163C19.7789 33.3638 20.143 33.5028 20.5228 33.5028C20.9025 33.5028 21.2666 33.3638 21.5353 33.1163C21.8038 32.8687 21.9546 32.533 21.9546 32.1828V23.056C21.522 23.3531 20.9939 23.5079 20.4546 23.496L20.5228 23.4708ZM8.31823 30.4731V4.94057C8.31464 4.62934 8.178 4.332 7.938 4.11309C7.698 3.89418 7.37402 3.77141 7.03641 3.77142H6.73641C6.3988 3.77141 6.07481 3.89418 5.83481 4.11309C5.59481 4.332 5.45818 4.62934 5.45459 4.94057V30.4731C5.45459 30.7865 5.58964 31.0871 5.83003 31.3088C6.07041 31.5304 6.39645 31.6549 6.73641 31.6549H7.03641C7.37638 31.6549 7.70241 31.5304 7.94279 31.3088C8.18319 31.0871 8.31823 30.7865 8.31823 30.4731ZM11.5637 28.6126H11.2637C10.9237 28.6126 10.5977 28.4881 10.3573 28.2665C10.1169 28.0448 9.98186 27.7443 9.98186 27.4309V7.98285C9.98546 7.67163 10.1221 7.37427 10.3621 7.15538C10.6021 6.93647 10.9261 6.8137 11.2637 6.81371H11.5637C11.9013 6.8137 12.2253 6.93647 12.4653 7.15538C12.7053 7.37427 12.8419 7.67163 12.8455 7.98285V27.456C12.8455 27.7694 12.7104 28.07 12.4701 28.2916C12.2297 28.5133 11.9036 28.6377 11.5637 28.6377V28.6126ZM16.0773 25.6206H15.7637C15.4274 25.6206 15.1048 25.4974 14.867 25.2781C14.6291 25.0589 14.4955 24.7616 14.4955 24.4514V11C14.4937 10.8454 14.5252 10.692 14.5881 10.5487C14.651 10.4054 14.7441 10.2751 14.862 10.1652C14.98 10.0553 15.1205 9.96801 15.2752 9.90847C15.43 9.84893 15.596 9.81827 15.7637 9.81828H16.0773C16.415 9.8216 16.7375 9.94755 16.9749 10.1688C17.2124 10.3901 17.3455 10.6888 17.3455 11V24.4514C17.3455 24.7616 17.2119 25.0589 16.974 25.2781C16.7362 25.4974 16.4137 25.6206 16.0773 25.6206ZM20.591 22.5406H20.3046C19.967 22.5406 19.643 22.4179 19.403 22.1989C19.163 21.98 19.0263 21.6827 19.0228 21.3714V14.1303C19.0116 13.9689 19.0364 13.8071 19.0959 13.6548C19.1552 13.5027 19.2479 13.3633 19.368 13.2455C19.4882 13.1276 19.6333 13.0338 19.7945 12.9697C19.9555 12.9057 20.1291 12.8728 20.3046 12.8731H20.6046C20.9445 12.8731 21.2706 12.9976 21.511 13.2192C21.7514 13.4409 21.8864 13.7414 21.8864 14.0549V21.3463C21.8882 21.5025 21.8564 21.6575 21.7927 21.8024C21.7292 21.9472 21.6351 22.0789 21.5158 22.1901C21.3966 22.3011 21.2548 22.3892 21.0982 22.4494C20.9418 22.5096 20.7741 22.5406 20.6046 22.5406H20.591ZM25.1182 19.8377H24.8182C24.4783 19.8377 24.1522 19.7133 23.9118 19.4916C23.6714 19.27 23.5364 18.9694 23.5364 18.656V16.7829C23.54 16.4716 23.6766 16.1743 23.9166 15.9554C24.1566 15.7364 24.4806 15.6137 24.8182 15.6137H25.1182C25.4559 15.6137 25.7799 15.7364 26.0199 15.9554C26.2599 16.1743 26.3965 16.4716 26.4 16.7829V18.656C26.4 18.9673 26.267 19.266 26.0294 19.4872C25.792 19.7085 25.4695 19.8344 25.1319 19.8377H25.1182Z" fill="url(#paint1_linear_302_3341)"/>
<path d="M41.8014 29.7886V12.9886H44.3694L51.7134 25.2526H50.3694L57.5934 12.9886H60.1614L60.1854 29.7886H57.2334L57.2094 17.6206H57.8334L51.6894 27.8686H50.2974L44.0574 17.6206H44.7774V29.7886H41.8014ZM71.7793 29.9566C70.6913 29.9566 69.7313 29.7566 68.8993 29.3566C68.0673 28.9406 67.4193 28.3166 66.9553 27.4846C66.4913 26.6366 66.2593 25.5726 66.2593 24.2926V16.9726H69.2593V23.8846C69.2593 25.0366 69.5153 25.9006 70.0273 26.4766C70.5553 27.0366 71.2993 27.3166 72.2593 27.3166C72.9633 27.3166 73.5713 27.1726 74.0833 26.8846C74.6113 26.5966 75.0193 26.1646 75.3073 25.5886C75.6113 25.0126 75.7633 24.3006 75.7633 23.4526V16.9726H78.7633V29.7886H75.9073V26.3326L76.4113 27.3886C75.9793 28.2206 75.3473 28.8606 74.5153 29.3086C73.6833 29.7406 72.7713 29.9566 71.7793 29.9566ZM88.5712 29.9566C87.4992 29.9566 86.4672 29.8206 85.4752 29.5486C84.4992 29.2606 83.7232 28.9166 83.1472 28.5166L84.2992 26.2366C84.8752 26.6046 85.5632 26.9086 86.3632 27.1486C87.1632 27.3886 87.9632 27.5086 88.7632 27.5086C89.7072 27.5086 90.3872 27.3806 90.8032 27.1246C91.2352 26.8686 91.4512 26.5246 91.4512 26.0926C91.4512 25.7406 91.3072 25.4766 91.0192 25.3006C90.7312 25.1086 90.3552 24.9646 89.8912 24.8686C89.4272 24.7726 88.9072 24.6846 88.3312 24.6046C87.7712 24.5246 87.2032 24.4206 86.6272 24.2926C86.0672 24.1486 85.5552 23.9486 85.0912 23.6926C84.6272 23.4206 84.2512 23.0606 83.9632 22.6126C83.6752 22.1646 83.5312 21.5726 83.5312 20.8366C83.5312 20.0206 83.7632 19.3166 84.2272 18.7246C84.6912 18.1166 85.3392 17.6526 86.1712 17.3326C87.0192 16.9966 88.0192 16.8286 89.1712 16.8286C90.0352 16.8286 90.9072 16.9246 91.7872 17.1166C92.6672 17.3086 93.3952 17.5806 93.9712 17.9326L92.8192 20.2126C92.2112 19.8446 91.5952 19.5966 90.9712 19.4686C90.3632 19.3246 89.7552 19.2526 89.1472 19.2526C88.2352 19.2526 87.5552 19.3886 87.1072 19.6606C86.6752 19.9326 86.4592 20.2766 86.4592 20.6926C86.4592 21.0766 86.6032 21.3646 86.8912 21.5566C87.1792 21.7486 87.5552 21.9006 88.0192 22.0126C88.4832 22.1246 88.9952 22.2206 89.5552 22.3006C90.1312 22.3646 90.6992 22.4686 91.2592 22.6126C91.8192 22.7566 92.3312 22.9566 92.7952 23.2126C93.2752 23.4526 93.6592 23.7966 93.9472 24.2446C94.2352 24.6926 94.3792 25.2766 94.3792 25.9966C94.3792 26.7966 94.1392 27.4926 93.6592 28.0846C93.1952 28.6766 92.5312 29.1406 91.6672 29.4766C90.8032 29.7966 89.7712 29.9566 88.5712 29.9566ZM98.8828 29.7886V16.9726H101.883V29.7886H98.8828ZM100.395 14.8606C99.8348 14.8606 99.3708 14.6846 99.0028 14.3326C98.6508 13.9806 98.4748 13.5566 98.4748 13.0606C98.4748 12.5486 98.6508 12.1246 99.0028 11.7886C99.3708 11.4366 99.8348 11.2606 100.395 11.2606C100.955 11.2606 101.411 11.4286 101.763 11.7646C102.131 12.0846 102.315 12.4926 102.315 12.9886C102.315 13.5166 102.139 13.9646 101.787 14.3326C101.435 14.6846 100.971 14.8606 100.395 14.8606ZM111.388 29.7886L105.796 17.1886H107.572L112.708 28.8766H111.868L117.076 17.1886H118.756L113.14 29.7886H111.388ZM128.077 29.9086C126.765 29.9086 125.613 29.6366 124.621 29.0926C123.629 28.5326 122.853 27.7726 122.293 26.8126C121.733 25.8366 121.453 24.7246 121.453 23.4766C121.453 22.2286 121.717 21.1246 122.245 20.1646C122.789 19.2046 123.525 18.4526 124.453 17.9086C125.397 17.3486 126.453 17.0686 127.621 17.0686C128.805 17.0686 129.853 17.3406 130.765 17.8846C131.693 18.4126 132.421 19.1646 132.949 20.1406C133.477 21.1006 133.741 22.2126 133.741 23.4766C133.741 23.5566 133.733 23.6446 133.717 23.7406C133.717 23.8206 133.717 23.9086 133.717 24.0046H122.749V22.7326H132.805L132.133 23.2366C132.133 22.3246 131.933 21.5166 131.533 20.8126C131.149 20.0926 130.621 19.5326 129.949 19.1326C129.277 18.7326 128.501 18.5326 127.621 18.5326C126.757 18.5326 125.981 18.7326 125.293 19.1326C124.605 19.5326 124.069 20.0926 123.685 20.8126C123.301 21.5326 123.109 22.3566 123.109 23.2846V23.5486C123.109 24.5086 123.317 25.3566 123.733 26.0926C124.165 26.8126 124.757 27.3806 125.509 27.7966C126.277 28.1966 127.149 28.3966 128.125 28.3966C128.893 28.3966 129.605 28.2606 130.261 27.9886C130.933 27.7166 131.509 27.3006 131.989 26.7406L132.949 27.8446C132.389 28.5166 131.685 29.0286 130.837 29.3806C130.005 29.7326 129.085 29.9086 128.077 29.9086ZM139.129 29.7886V17.1886H140.761V20.6206L140.593 20.0206C140.945 19.0606 141.537 18.3326 142.369 17.8366C143.201 17.3246 144.233 17.0686 145.465 17.0686V18.7246C145.401 18.7246 145.337 18.7246 145.273 18.7246C145.209 18.7086 145.145 18.7006 145.081 18.7006C143.753 18.7006 142.713 19.1086 141.961 19.9246C141.209 20.7246 140.833 21.8686 140.833 23.3566V29.7886H139.129ZM154.019 29.9086C152.979 29.9086 151.995 29.7646 151.067 29.4766C150.139 29.1726 149.411 28.7966 148.883 28.3486L149.651 27.0046C150.163 27.3886 150.819 27.7246 151.619 28.0126C152.419 28.2846 153.259 28.4206 154.139 28.4206C155.339 28.4206 156.203 28.2366 156.731 27.8686C157.259 27.4846 157.523 26.9806 157.523 26.3566C157.523 25.8926 157.371 25.5326 157.067 25.2766C156.779 25.0046 156.395 24.8046 155.915 24.6766C155.435 24.5326 154.899 24.4126 154.307 24.3166C153.715 24.2206 153.123 24.1086 152.531 23.9806C151.955 23.8526 151.427 23.6686 150.947 23.4286C150.467 23.1726 150.075 22.8286 149.771 22.3966C149.483 21.9646 149.339 21.3886 149.339 20.6686C149.339 19.9806 149.531 19.3646 149.915 18.8206C150.299 18.2766 150.859 17.8526 151.595 17.5486C152.347 17.2286 153.259 17.0686 154.331 17.0686C155.147 17.0686 155.963 17.1806 156.779 17.4046C157.595 17.6126 158.267 17.8926 158.795 18.2446L158.051 19.6126C157.491 19.2286 156.891 18.9566 156.251 18.7966C155.611 18.6206 154.971 18.5326 154.331 18.5326C153.195 18.5326 152.355 18.7326 151.811 19.1326C151.283 19.5166 151.019 20.0126 151.019 20.6206C151.019 21.1006 151.163 21.4766 151.451 21.7486C151.755 22.0206 152.147 22.2366 152.627 22.3966C153.123 22.5406 153.659 22.6606 154.235 22.7566C154.827 22.8526 155.411 22.9726 155.987 23.1166C156.579 23.2446 157.115 23.4286 157.595 23.6686C158.091 23.8926 158.483 24.2206 158.771 24.6526C159.075 25.0686 159.227 25.6206 159.227 26.3086C159.227 27.0446 159.019 27.6846 158.603 28.2286C158.203 28.7566 157.611 29.1726 156.827 29.4766C156.059 29.7646 155.123 29.9086 154.019 29.9086ZM169.626 29.9086C168.314 29.9086 167.162 29.6366 166.17 29.0926C165.178 28.5326 164.402 27.7726 163.842 26.8126C163.282 25.8366 163.002 24.7246 163.002 23.4766C163.002 22.2286 163.266 21.1246 163.794 20.1646C164.338 19.2046 165.074 18.4526 166.002 17.9086C166.946 17.3486 168.002 17.0686 169.17 17.0686C170.354 17.0686 171.402 17.3406 172.314 17.8846C173.242 18.4126 173.97 19.1646 174.498 20.1406C175.026 21.1006 175.29 22.2126 175.29 23.4766C175.29 23.5566 175.282 23.6446 175.266 23.7406C175.266 23.8206 175.266 23.9086 175.266 24.0046H164.298V22.7326H174.354L173.682 23.2366C173.682 22.3246 173.482 21.5166 173.082 20.8126C172.698 20.0926 172.17 19.5326 171.498 19.1326C170.826 18.7326 170.05 18.5326 169.17 18.5326C168.306 18.5326 167.53 18.7326 166.842 19.1326C166.154 19.5326 165.618 20.0926 165.234 20.8126C164.85 21.5326 164.658 22.3566 164.658 23.2846V23.5486C164.658 24.5086 164.866 25.3566 165.282 26.0926C165.714 26.8126 166.306 27.3806 167.058 27.7966C167.826 28.1966 168.698 28.3966 169.674 28.3966C170.442 28.3966 171.154 28.2606 171.81 27.9886C172.482 27.7166 173.058 27.3006 173.538 26.7406L174.498 27.8446C173.938 28.5166 173.234 29.0286 172.386 29.3806C171.554 29.7326 170.634 29.9086 169.626 29.9086Z" fill="url(#paint2_linear_302_3341)"/>
</g>
<defs>
<linearGradient id="paint0_linear_302_3341" x1="90" y1="-9.32577e-06" x2="0.978122" y2="24.8723" gradientUnits="userSpaceOnUse">
<stop stop-color="white"/>
<stop offset="1" stop-color="white" stop-opacity="0"/>
</linearGradient>
<linearGradient id="paint1_linear_302_3341" x1="5.45459" y1="25.1429" x2="22.5" y2="25.1429" gradientUnits="userSpaceOnUse">
<stop stop-color="#39CABD"/>
<stop offset="1" stop-color="#4AB5CA"/>
</linearGradient>
<linearGradient id="paint2_linear_302_3341" x1="44.4189" y1="25.7463" x2="185.751" y2="25.7463" gradientUnits="userSpaceOnUse">
<stop stop-color="#46BBC7"/>
<stop offset="0.5625" stop-color="#4488D8"/>
<stop offset="1" stop-color="#8768F2"/>
</linearGradient>
<clipPath id="clip0_302_3341">
<rect width="180" height="44" fill="white"/>
</clipPath>
</defs>
</svg>
